<svg xmlns="http://www.w3.org/2000/svg" width="280" height="280" viewBox="0 0 280 280">
  <!-- A tile of faint stars. styles.css repeats this across the whole
       page background. Edit freely: each circle is one star.
       cx/cy = position, r = size, opacity = brightness. -->
  <g fill="#e8ecff">
    <circle cx="14"  cy="22"  r="1.1" opacity="0.55"/>
    <circle cx="48"  cy="74"  r="0.7" opacity="0.35"/>
    <circle cx="92"  cy="35"  r="0.9" opacity="0.45"/>
    <circle cx="131" cy="88"  r="0.6" opacity="0.3"/>
    <circle cx="176" cy="18"  r="1.0" opacity="0.5"/>
    <circle cx="219" cy="63"  r="0.7" opacity="0.35"/>
    <circle cx="258" cy="29"  r="0.9" opacity="0.4"/>
    <circle cx="27"  cy="121" r="0.8" opacity="0.4"/>
    <circle cx="74"  cy="156" r="0.6" opacity="0.3"/>
    <circle cx="118" cy="132" r="1.1" opacity="0.5"/>
    <circle cx="163" cy="171" r="0.7" opacity="0.35"/>
    <circle cx="207" cy="118" r="0.9" opacity="0.45"/>
    <circle cx="251" cy="153" r="0.6" opacity="0.3"/>
    <circle cx="9"   cy="197" r="0.9" opacity="0.45"/>
    <circle cx="56"  cy="231" r="0.7" opacity="0.35"/>
    <circle cx="103" cy="208" r="0.6" opacity="0.3"/>
    <circle cx="148" cy="246" r="1.0" opacity="0.5"/>
    <circle cx="193" cy="221" r="0.7" opacity="0.35"/>
    <circle cx="237" cy="259" r="0.9" opacity="0.4"/>
    <circle cx="269" cy="201" r="0.6" opacity="0.3"/>
  </g>
  <!-- A few tinted stars for color: magenta and cyan accents -->
  <g>
    <circle cx="68"  cy="12"  r="1.3" fill="#ff2d95" opacity="0.5"/>
    <circle cx="240" cy="96"  r="1.2" fill="#22d3ee" opacity="0.45"/>
    <circle cx="36"  cy="168" r="1.2" fill="#a855f7" opacity="0.45"/>
    <circle cx="156" cy="58"  r="1.3" fill="#22d3ee" opacity="0.4"/>
    <circle cx="122" cy="186" r="1.2" fill="#ff2d95" opacity="0.4"/>
    <circle cx="222" cy="186" r="1.3" fill="#a855f7" opacity="0.4"/>
    <circle cx="84"  cy="262" r="1.2" fill="#22d3ee" opacity="0.4"/>
  </g>
</svg>
